%
M48
M72
T01C0.03200
T02C0.04400
T03C0.04700
T04C0.05200
%
T01
X12000Y56000
X12000Y66000
X12000Y76000
X27000Y66000
X27000Y56000
X67000Y56000
X67000Y66000
T02
X62000Y81000
X22000Y81000
T03
X17000Y28500
X37000Y28500
X57000Y28500
X57000Y203500
X37000Y203500
X17000Y203500
T04
X13500Y154500
X13500Y106500
X37000Y98500
X60500Y106500
X60500Y154500
M30
